<mxfile host="app.diagrams.net" modified="2022-06-30T06:30:27.051Z" agent="5.0 (Windows NT 10.0; Win64; x64) AppleWebKit/537.36 (KHTML, like Gecko) Chrome/102.0.0.0 Safari/537.36" etag="uKEkp71uk8lv0vfYI5pm" version="20.0.4" type="github">
  <diagram id="GNU3i8hCxYjH3E0Nk9u4" name="Page-1">
    <mxGraphModel dx="1384" dy="847" grid="1" gridSize="10" guides="1" tooltips="1" connect="1" arrows="1" fold="1" page="1" pageScale="1" pageWidth="850" pageHeight="1100" math="0" shadow="0">
      <root>
        <mxCell id="0" />
        <mxCell id="1" parent="0" />
        <mxCell id="P2uVBUgscexypnk8xD97-5" style="edgeStyle=orthogonalEdgeStyle;rounded=0;orthogonalLoop=1;jettySize=auto;html=1;" edge="1" parent="1" source="P2uVBUgscexypnk8xD97-1" target="P2uVBUgscexypnk8xD97-2">
          <mxGeometry relative="1" as="geometry" />
        </mxCell>
        <mxCell id="P2uVBUgscexypnk8xD97-6" style="edgeStyle=orthogonalEdgeStyle;rounded=0;orthogonalLoop=1;jettySize=auto;html=1;" edge="1" parent="1" source="P2uVBUgscexypnk8xD97-1" target="P2uVBUgscexypnk8xD97-3">
          <mxGeometry relative="1" as="geometry" />
        </mxCell>
        <mxCell id="P2uVBUgscexypnk8xD97-7" style="edgeStyle=orthogonalEdgeStyle;rounded=0;orthogonalLoop=1;jettySize=auto;html=1;entryX=0.5;entryY=0;entryDx=0;entryDy=0;" edge="1" parent="1" source="P2uVBUgscexypnk8xD97-1" target="P2uVBUgscexypnk8xD97-4">
          <mxGeometry relative="1" as="geometry" />
        </mxCell>
        <mxCell id="P2uVBUgscexypnk8xD97-1" value="mitraZ" style="whiteSpace=wrap;html=1;aspect=fixed;" vertex="1" parent="1">
          <mxGeometry x="385" y="180" width="80" height="80" as="geometry" />
        </mxCell>
        <mxCell id="P2uVBUgscexypnk8xD97-11" style="edgeStyle=orthogonalEdgeStyle;rounded=0;orthogonalLoop=1;jettySize=auto;html=1;" edge="1" parent="1" source="P2uVBUgscexypnk8xD97-2" target="P2uVBUgscexypnk8xD97-10">
          <mxGeometry relative="1" as="geometry" />
        </mxCell>
        <mxCell id="P2uVBUgscexypnk8xD97-2" value="User Front End" style="rounded=0;whiteSpace=wrap;html=1;" vertex="1" parent="1">
          <mxGeometry x="50" y="320" width="120" height="60" as="geometry" />
        </mxCell>
        <mxCell id="P2uVBUgscexypnk8xD97-23" style="edgeStyle=orthogonalEdgeStyle;rounded=0;orthogonalLoop=1;jettySize=auto;html=1;entryX=0;entryY=1;entryDx=0;entryDy=-15;entryPerimeter=0;" edge="1" parent="1" source="P2uVBUgscexypnk8xD97-3" target="P2uVBUgscexypnk8xD97-22">
          <mxGeometry relative="1" as="geometry" />
        </mxCell>
        <mxCell id="P2uVBUgscexypnk8xD97-27" style="edgeStyle=orthogonalEdgeStyle;rounded=0;orthogonalLoop=1;jettySize=auto;html=1;entryX=1;entryY=0.5;entryDx=0;entryDy=0;" edge="1" parent="1" source="P2uVBUgscexypnk8xD97-3" target="P2uVBUgscexypnk8xD97-24">
          <mxGeometry relative="1" as="geometry" />
        </mxCell>
        <mxCell id="P2uVBUgscexypnk8xD97-3" value="Backend" style="rounded=0;whiteSpace=wrap;html=1;" vertex="1" parent="1">
          <mxGeometry x="365" y="380" width="120" height="60" as="geometry" />
        </mxCell>
        <mxCell id="P2uVBUgscexypnk8xD97-12" style="edgeStyle=orthogonalEdgeStyle;rounded=0;orthogonalLoop=1;jettySize=auto;html=1;" edge="1" parent="1" source="P2uVBUgscexypnk8xD97-4" target="P2uVBUgscexypnk8xD97-9">
          <mxGeometry relative="1" as="geometry" />
        </mxCell>
        <mxCell id="P2uVBUgscexypnk8xD97-4" value="Authorized personnel front end" style="rounded=0;whiteSpace=wrap;html=1;" vertex="1" parent="1">
          <mxGeometry x="630" y="320" width="120" height="60" as="geometry" />
        </mxCell>
        <mxCell id="P2uVBUgscexypnk8xD97-9" value="WebAPP" style="ellipse;whiteSpace=wrap;html=1;" vertex="1" parent="1">
          <mxGeometry x="630" y="470" width="120" height="80" as="geometry" />
        </mxCell>
        <mxCell id="P2uVBUgscexypnk8xD97-14" style="edgeStyle=orthogonalEdgeStyle;rounded=0;orthogonalLoop=1;jettySize=auto;html=1;entryX=0;entryY=0;entryDx=0;entryDy=55;entryPerimeter=0;" edge="1" parent="1" source="P2uVBUgscexypnk8xD97-10" target="P2uVBUgscexypnk8xD97-13">
          <mxGeometry relative="1" as="geometry" />
        </mxCell>
        <mxCell id="P2uVBUgscexypnk8xD97-20" style="edgeStyle=orthogonalEdgeStyle;rounded=0;orthogonalLoop=1;jettySize=auto;html=1;entryX=0;entryY=0;entryDx=0;entryDy=55;entryPerimeter=0;" edge="1" parent="1" source="P2uVBUgscexypnk8xD97-10" target="P2uVBUgscexypnk8xD97-17">
          <mxGeometry relative="1" as="geometry" />
        </mxCell>
        <mxCell id="P2uVBUgscexypnk8xD97-21" style="edgeStyle=orthogonalEdgeStyle;rounded=0;orthogonalLoop=1;jettySize=auto;html=1;entryX=0;entryY=0;entryDx=0;entryDy=55;entryPerimeter=0;" edge="1" parent="1" source="P2uVBUgscexypnk8xD97-10" target="P2uVBUgscexypnk8xD97-18">
          <mxGeometry relative="1" as="geometry" />
        </mxCell>
        <mxCell id="P2uVBUgscexypnk8xD97-10" value="Mobile App" style="ellipse;whiteSpace=wrap;html=1;" vertex="1" parent="1">
          <mxGeometry x="50" y="470" width="120" height="80" as="geometry" />
        </mxCell>
        <mxCell id="P2uVBUgscexypnk8xD97-13" value="Login/&lt;br&gt;Sign Up" style="shape=card;whiteSpace=wrap;html=1;" vertex="1" parent="1">
          <mxGeometry x="130" y="570" width="60" height="80" as="geometry" />
        </mxCell>
        <mxCell id="P2uVBUgscexypnk8xD97-17" value="Housing" style="shape=card;whiteSpace=wrap;html=1;" vertex="1" parent="1">
          <mxGeometry x="130" y="660" width="60" height="80" as="geometry" />
        </mxCell>
        <mxCell id="P2uVBUgscexypnk8xD97-18" value="Services" style="shape=card;whiteSpace=wrap;html=1;" vertex="1" parent="1">
          <mxGeometry x="130" y="760" width="60" height="80" as="geometry" />
        </mxCell>
        <mxCell id="P2uVBUgscexypnk8xD97-29" style="edgeStyle=orthogonalEdgeStyle;rounded=0;orthogonalLoop=1;jettySize=auto;html=1;" edge="1" parent="1" source="P2uVBUgscexypnk8xD97-22" target="P2uVBUgscexypnk8xD97-25">
          <mxGeometry relative="1" as="geometry" />
        </mxCell>
        <mxCell id="P2uVBUgscexypnk8xD97-22" value="Database" style="shape=cylinder3;whiteSpace=wrap;html=1;boundedLbl=1;backgroundOutline=1;size=15;" vertex="1" parent="1">
          <mxGeometry x="450" y="520" width="60" height="80" as="geometry" />
        </mxCell>
        <mxCell id="P2uVBUgscexypnk8xD97-26" style="edgeStyle=orthogonalEdgeStyle;rounded=0;orthogonalLoop=1;jettySize=auto;html=1;" edge="1" parent="1" source="P2uVBUgscexypnk8xD97-24">
          <mxGeometry relative="1" as="geometry">
            <mxPoint x="180" y="510" as="targetPoint" />
            <Array as="points">
              <mxPoint x="220" y="670" />
              <mxPoint x="220" y="510" />
            </Array>
          </mxGeometry>
        </mxCell>
        <mxCell id="P2uVBUgscexypnk8xD97-24" value="Application Server" style="rounded=0;whiteSpace=wrap;html=1;" vertex="1" parent="1">
          <mxGeometry x="265" y="640" width="120" height="60" as="geometry" />
        </mxCell>
        <mxCell id="P2uVBUgscexypnk8xD97-30" style="edgeStyle=orthogonalEdgeStyle;rounded=0;orthogonalLoop=1;jettySize=auto;html=1;entryX=0;entryY=0.5;entryDx=0;entryDy=0;" edge="1" parent="1" source="P2uVBUgscexypnk8xD97-25" target="P2uVBUgscexypnk8xD97-9">
          <mxGeometry relative="1" as="geometry" />
        </mxCell>
        <mxCell id="P2uVBUgscexypnk8xD97-25" value="Data Updating Server" style="rounded=0;whiteSpace=wrap;html=1;" vertex="1" parent="1">
          <mxGeometry x="465" y="640" width="120" height="60" as="geometry" />
        </mxCell>
        <mxCell id="FXCXVvDxTQtwc45PbP1s-115" value="Icons" style="" parent="0" />
      </root>
    </mxGraphModel>
  </diagram>
</mxfile>
